<?xml version="1.0" encoding="utf-8"?>
<!-- Generator: Adobe Illustrator 18.0.0, SVG Export Plug-In . SVG Version: 6.00 Build 0)  -->
<!DOCTYPE svg PUBLIC "-//W3C//DTD SVG 1.1//EN" "http://www.w3.org/Graphics/SVG/1.1/DTD/svg11.dtd">
<svg version="1.1" id="Layer_1" xmlns="http://www.w3.org/2000/svg" xmlns:xlink="http://www.w3.org/1999/xlink" x="0px" y="0px"
	 viewBox="0 0 150 60" enable-background="new 0 0 150 60" xml:space="preserve">
<symbol  id="New_Symbol" viewBox="-82.8 -5.4 165.5 10.9">
	<g>
		<path fill="#32307A" d="M-81.5,4.3v-7.4h-1.3v7.4H-81.5z"/>
		<path fill="#32307A" d="M-76.5,2.7c2,0,2.9-0.9,2.9-2.5v-3.3h-1.2v3.3c0,0.9-0.5,1.4-1.7,1.4h-1.9c-0.1,0-0.1-0.1-0.1-0.2v-4.5
			h-1.2v4.9c0,0.7,0.2,0.9,0.8,0.9H-76.5z"/>
		<path fill="#32307A" d="M-68.1,2.7c1.4,0,2.1-0.8,2.1-2.5v-3.3c0-1.7-0.6-2.3-2.2-2.3h-3.5v1.1h3.3c0.9,0,1.2,0.3,1.2,1.2v0.3
			h-2.6c-1.6,0-2.5,0.9-2.5,2.8c0,1.9,1,2.8,2.5,2.8H-68.1z M-69.6-1.8h2.5v2c0,0.9-0.4,1.4-1.3,1.4h-1.2c-1,0-1.5-0.5-1.5-1.7
			C-71.1-1.3-70.6-1.8-69.6-1.8z"/>
		<path fill="#32307A" d="M-55.3,2.7c2,0,2.9-0.9,2.9-2.5v-3.3h-1.2v3.3c0,0.9-0.5,1.4-1.7,1.4h-1.9c-0.1,0-0.1-0.1-0.1-0.2v-4.5
			h-1.2v4.9c0,0.7,0.2,0.9,0.8,0.9H-55.3z"/>
		<path fill="#32307A" d="M-40.9,2.7V1.6h-2c-0.5,0-0.7-0.2-0.7-0.7v-3.9h-1.2V1c0,1.2,0.4,1.7,1.6,1.7H-40.9z"/>
		<path fill="#32307A" d="M-37.7,5.4l-1.4-2.4h-1.2l1.2,2.4H-37.7z M-38.6,2.7v-5.8h-1.2v5.8H-38.6z"/>
		<path fill="#32307A" d="M-33,2.7c1.5,0,2-0.8,2-1.9v-2.7c0-0.8-0.2-1.2-1.2-1.2h-2.7c-1.4,0-1.9,0.7-1.9,1.8c0,1.1,0.5,1.7,2,1.7
			h2.8v0.4c0,0.5-0.3,0.8-0.9,0.8h-3.5v1.1H-33z M-32.1-1.7v1.1h-2.7c-0.6,0-0.8-0.3-0.8-0.7c0-0.4,0.2-0.7,0.8-0.7h2.4
			C-32.2-2-32.1-1.9-32.1-1.7z"/>
		<path fill="#32307A" d="M-20.3,2.7l-3.5-8.1H-25l1.1,2.5c-0.7,0-0.9,0.2-1.1,0.7L-27,2.7h1.2l1.7-4.3c0.1-0.2,0.1-0.2,0.4-0.2h0.2
			l2,4.6H-20.3z"/>
		<path fill="#32307A" d="M-10.3,4.3V3h-2.9c-1.4,0-2.1-0.7-2.1-2.4c0-1.7,0.6-2.4,2.1-2.4h2.9v-1.3h-2.9c-2.2,0-3.4,1.2-3.4,3.7
			c0,2.5,1.2,3.7,3.4,3.7H-10.3z"/>
		<path fill="#32307A" d="M-5.3,2.7c1.5,0,2.5-0.9,2.5-2.9c0-2-1-2.9-2.5-2.9h-1.2c-1.6,0-2.5,0.9-2.5,2.9c0,2,1,2.9,2.5,2.9H-5.3z
			 M-6.4,1.6c-1,0-1.5-0.5-1.5-1.8C-7.9-1.5-7.5-2-6.4-2h1C-4.4-2-4-1.5-4-0.2c0,1.3-0.5,1.8-1.5,1.8H-6.4z"/>
		<path fill="#32307A" d="M1.8,2.7c2,0,2.9-0.9,2.9-2.5v-3.3H3.5v3.3c0,0.9-0.5,1.4-1.8,1.4h-1.9c-0.1,0-0.1-0.1-0.1-0.2v-4.5h-1.2
			v4.9c0,0.7,0.2,0.9,0.8,0.9H1.8z"/>
		<path fill="#32307A" d="M11.2,2.7V1.6H8c-0.5,0-0.8-0.2-0.8-0.7c0-0.4,0.2-0.6,0.8-0.6h1.4c1.6,0,2-0.7,2-1.6c0-1-0.5-1.8-1.9-1.8
			H6.1V-2h3.4c0.5,0,0.8,0.2,0.8,0.6c0,0.5-0.2,0.6-0.8,0.6H8.1c-1.6,0-2,0.8-2,1.7c0,1,0.5,1.7,1.9,1.7H11.2z"/>
		<path fill="#32307A" d="M13,2.7v1.4h1.2V2.7h1.6V1.6h-1.6v-2.8C14.2-1.8,14.4-2,15-2h0.8v-1.1h-1c-1.2,0-1.7,0.5-1.7,2v2.7h-0.8
			v1.1H13z"/>
		<path fill="#32307A" d="M20.9,2.7V1.6h-2c-0.5,0-0.7-0.2-0.7-0.7v-3.9h-1.2V1c0,1.2,0.4,1.7,1.6,1.7H20.9z"/>
		<path fill="#32307A" d="M23.2,2.7v-3.5c0-0.7,0.5-1.2,1.4-1.2h0.9C26.5-2,27-1.5,27-0.8v3.5h1.1v-3.5c0-1.3-0.9-2.3-2.5-2.3h-1.1
			c-1.7,0-2.5,0.9-2.5,2.3v3.5H23.2z"/>
		<path fill="#32307A" d="M35,2.7V1.6h-2.9c-1,0-1.5-0.5-1.5-1.8c0-1.3,0.4-1.8,1.5-1.8H35v-1.1h-3c-1.6,0-2.5,0.9-2.5,2.9
			c0,2,1,2.9,2.5,2.9H35z"/>
		<path fill="#32307A" d="M41.6,2.7V1.6h-2.9c-1,0-1.5-0.5-1.5-1.8c0-1.3,0.4-1.8,1.5-1.8h2.9v-1.1h-3c-1.6,0-2.5,0.9-2.5,2.9
			c0,2,1,2.9,2.5,2.9H41.6z"/>
		<path fill="#32307A" d="M44.2,4.9V3.5H43v1.4H44.2z M44.2,2.7v-5.8H43v5.8H44.2z"/>
		<path fill="#32307A" d="M49.3,2.7c1.5,0,2.5-0.9,2.5-2.9c0-2-1-2.9-2.5-2.9h-1.2c-1.6,0-2.5,0.9-2.5,2.9c0,2,1,2.9,2.5,2.9H49.3z
			 M48.2,1.6c-1,0-1.5-0.5-1.5-1.8c0-1.3,0.4-1.8,1.5-1.8h1c1,0,1.5,0.5,1.5,1.8c0,1.3-0.5,1.8-1.5,1.8H48.2z M50.1,5.4l-1.4-2.4
			h-1.2l1.2,2.4H50.1z"/>
		<path fill="#32307A" d="M56.4,2.7c2,0,2.9-0.9,2.9-2.5v-3.3h-1.2v3.3c0,0.9-0.5,1.4-1.7,1.4h-1.9c-0.1,0-0.1-0.1-0.1-0.2v-4.5
			h-1.2v4.9c0,0.7,0.2,0.9,0.8,0.9H56.4z"/>
		<path fill="#32307A" d="M69.9,4.3V3h-2.9C65.6,3,65,2.3,65,0.6c0-1.7,0.6-2.4,2.1-2.4h2.9v-1.3h-2.9c-2.2,0-3.4,1.2-3.4,3.7
			c0,2.5,1.2,3.7,3.4,3.7H69.9z"/>
		<path fill="#32307A" d="M72.5-1.6v-1.5h-1.3v1.5H72.5z"/>
	</g>
	<g>
		<path fill="#322F80" d="M80.5-3.2h-1.6l-0.7,1.7h-3l-0.6-1.7h-1.6L76,4.3h1.6L80.5-3.2z M77.8-0.2l-1,2.8l-1-2.8H77.8z"/>
		<path fill="#322F80" d="M81.3-3.2v1.4h1.4v-1.4H81.3z"/>
	</g>
	<g>
		<path fill="none" stroke="#2F2E77" stroke-linecap="square" stroke-linejoin="bevel" stroke-miterlimit="10" d="M-60.5-2.6H-62
			c-1.3,0-2.5,1.1-2.5,2.5v0c0,1.3,1.1,2.5,2.5,2.5h1.6"/>
		
			<line fill="none" stroke="#2F2E77" stroke-linecap="square" stroke-linejoin="bevel" stroke-miterlimit="10" x1="-64.1" y1="-0.1" x2="-60.6" y2="-0.1"/>
	</g>
	<g>
		<path fill="none" stroke="#2F2E77" stroke-linecap="square" stroke-linejoin="bevel" stroke-miterlimit="10" d="M-46.7-2.6h-1.5
			c-1.3,0-2.5,1.1-2.5,2.5v0c0,1.3,1.1,2.5,2.5,2.5h1.6"/>
		
			<line fill="none" stroke="#2F2E77" stroke-linecap="square" stroke-linejoin="bevel" stroke-miterlimit="10" x1="-50.3" y1="-0.1" x2="-46.8" y2="-0.1"/>
	</g>
</symbol>
<path fill="#303079" d="M145.8,40.3c-1.3,0-2.3,0-3.3,0c-0.6,0-0.8-0.3-1-0.7c-1-1.8-2.1-3.6-3.1-5.5c-0.3-0.6-0.7-0.8-1.4-0.8
	c-0.8,0-1.7,0-2.5,0c-0.8,0-1.1,0.2-1.1,1c0.1,1.7,0,3.4,0,5c0,0.7-0.2,0.9-0.9,0.9c-2.7,0.1-2.7,0.1-2.7-2.6c0-4.6,0-9.1,0-13.7
	c0-1,0.3-1.3,1.3-1.3c2.9,0.1,5.7,0,8.6,0c4.1,0.1,6.2,3,5.2,6.9c-0.4,1.4-1.1,2.4-2.5,2.9c-0.7,0.2-0.7,0.5-0.4,1.1
	c1.1,1.8,2.1,3.6,3.2,5.4C145.4,39.4,145.5,39.7,145.8,40.3z M136.8,30.3c0.9-0.1,2,0.1,3-0.1c1.2-0.3,1.7-1.1,1.7-2.3
	c0-1.2-0.6-1.8-1.8-2c-1.9-0.4-3.7-0.1-5.6-0.2c-0.6,0-0.7,0.3-0.7,0.8c0,1,0,1.9,0,2.9c0,0.8,0.3,1,1,0.9
	C135.2,30.3,135.9,30.3,136.8,30.3z"/>
<path fill="#303079" d="M60.9,31.5c0-2.6,0-5.3,0-7.9c0-0.4-0.1-0.9,0.6-0.9c3.6,0.1,7.2-0.3,10.7,0.2c2.7,0.4,4.2,2.3,4.2,5.1
	c0.1,3.1-1.2,5-4,5.7c-2.2,0.6-4.4,0.3-6.6,0.3c-1.1,0-1.5,0.3-1.4,1.4c0.1,1.3,0,2.7,0,4c0,0.7-0.2,0.8-0.9,0.9
	c-2.8,0.1-2.8,0.1-2.8-2.6C60.9,35.6,60.9,33.6,60.9,31.5z M67.5,31c1.1-0.1,2.1,0.1,3.2-0.2c1.3-0.4,1.9-1.3,1.8-2.7
	c-0.1-1.2-0.7-2-2-2.2c-1.2-0.3-2.4-0.2-3.6-0.2c-2.3,0-2.3,0-2.3,2.3c0,1-0.4,2.2,0.2,2.8C65.3,31.4,66.6,30.9,67.5,31z"/>
<path fill="#303079" d="M84.6,36.1c-1.3,0-2.7-0.4-3.7,0.1c-1,0.5-1,2.2-1.4,3.3c-0.2,0.5-0.5,0.8-1.1,0.8c-0.6-0.1-1.3-0.1-1.9,0
	c-0.9,0.1-1-0.2-0.7-1c1.9-4.3,3.7-8.7,5.5-13c0.4-0.9,0.8-1.9,1.2-2.8c0.2-0.5,0.5-0.7,1-0.7c3.1-0.1,3.1-0.1,4.3,2.8
	c1.9,4.5,3.9,9.1,5.8,13.6c0.5,1.1,0.5,1.1-0.8,1.1c-2.7,0-2.7,0-3.7-2.6c-0.8-2-0.3-1.7-2.5-1.7C85.9,36,85.3,36,84.6,36.1
	C84.6,36,84.6,36,84.6,36.1z M84.7,26.4c-0.1,0-0.2,0-0.3,0c-0.8,2-1.6,4.1-2.4,6.1c-0.2,0.6,0.2,0.5,0.6,0.5c1.3,0,2.6,0,3.9,0
	c0.6,0,0.8-0.1,0.5-0.7C86.2,30.4,85.4,28.4,84.7,26.4z"/>
<path fill="#303079" d="M126.4,40.3c-2.3-0.1-1.7,0.4-2.5-1.7c-1-2.5-1-2.5-3.7-2.5c-1.3,0-2.7,0.1-4,0c-0.8,0-1.2,0.3-1.4,1
	c-0.2,0.8-0.6,1.6-0.9,2.5c-0.2,0.6-0.5,0.8-1.1,0.8c-3,0.1-3,0.1-1.9-2.7c1.9-4.6,3.9-9.2,5.8-13.9c0.3-0.7,0.6-1.1,1.5-1
	c2.8,0,2.8,0,4,2.6c1.9,4.5,3.9,9,5.8,13.5c0.6,1.4,0.6,1.4-0.9,1.4C126.8,40.3,126.6,40.3,126.4,40.3z M118.9,26
	c-0.9,2.3-1.7,4.3-2.4,6.3c-0.2,0.4-0.1,0.7,0.5,0.7c1.3,0,2.7,0,4,0c0.5,0,0.7-0.1,0.5-0.7C120.7,30.4,119.9,28.4,118.9,26z"/>
<path fill="#303079" d="M104.3,33c-1.3,0-2.7,0.1-4,0c-1.2-0.1-1.4,0.3-1.4,1.4c0.1,1.6,0,3.3,0,4.9c0,0.8-0.2,1-1,1
	c-2.7,0-2.7,0.1-2.7-2.6c0-2.9-0.1-5.7,0.2-8.6c0.3-3.9,2-5.7,5.9-6.1c2.4-0.2,4.9-0.3,7.3-0.3c0.7,0,0.9,0.2,0.9,0.9
	c0,2.1,0.1,2.1-1.9,2.1c-1.6,0-3.2,0-4.8,0c-2.2,0.1-3.4,1.2-3.8,3.3c-0.2,0.8,0,1.1,0.9,1.1c2.8,0,5.6,0,8.5,0
	c0.9,0,1.4,0.2,1.2,1.2c0,0.3,0,0.6,0,0.9c0.1,0.6-0.2,0.9-0.8,0.8C107.2,33,105.7,33,104.3,33z"/>
<g>
	<g id="XMLID_7_">
		<g>
			<linearGradient id="SVGID_1_" gradientUnits="userSpaceOnUse" x1="29.8162" y1="31.2636" x2="56.2562" y2="31.2636">
				<stop  offset="0" style="stop-color:#4EB648"/>
				<stop  offset="1" style="stop-color:#0B9648"/>
			</linearGradient>
			<polygon fill="url(#SVGID_1_)" points="56.3,22 56.3,46 29.8,53.8 29.8,8.7 			"/>
			<linearGradient id="SVGID_2_" gradientUnits="userSpaceOnUse" x1="2.7022" y1="31.3135" x2="29.8162" y2="31.3135">
				<stop  offset="0" style="stop-color:#303682"/>
				<stop  offset="1" style="stop-color:#1F65A7"/>
			</linearGradient>
			<polygon fill="url(#SVGID_2_)" points="29.8,8.7 29.8,53.8 29.5,53.9 2.7,47.8 2.7,31.5 			"/>
		</g>
		<g>
		</g>
	</g>
</g>
<use xlink:href="#New_Symbol"  width="165.5" height="10.9" x="-82.8" y="-5.4" transform="matrix(0.5139 0 0 -0.5139 103.4609 44.3288)" overflow="visible"/>
</svg>
